# Blender 4.0.1
# www.blender.org
o Cube
v -0.934533 0.173768 0.861954
v -0.800572 0.268493 1.109136
v -0.800572 0.438787 1.279430
v -0.934533 0.685969 1.374155
v 0.934533 0.685969 1.374155
v 0.800572 0.438787 1.279430
v 0.934533 0.173768 0.861954
v 0.800572 0.268493 1.109136
v -0.934533 0.737518 -1.374155
v -0.816393 0.519528 -1.290617
v -0.934533 0.173768 -0.810405
v -0.816393 0.257306 -1.028395
v 0.934533 0.173768 -0.810405
v 0.816393 0.257306 -1.028395
v 0.816393 0.519528 -1.290617
v 0.934533 0.737518 -1.374155
v -0.934533 0.743300 1.374155
v 0.934533 0.743300 1.374155
v -0.934533 0.826232 -0.733474
v -0.934533 0.737518 -1.374155
v 0.934533 0.737518 -1.374155
v 0.934533 0.826232 -0.733474
v -0.934533 0.743300 1.374155
v -0.934533 0.826232 0.708597
v 0.934533 0.826232 0.708597
v 0.934533 0.743300 1.374155
vn -0.0000 -1.0000 -0.0000
vn -0.0000 -0.0000 1.0000
vn -0.6269 -0.5509 0.5509
vn -0.0000 -0.9338 0.3578
vn 0.6269 -0.5509 0.5509
vn -0.0000 -0.3578 0.9338
vn -0.0000 -0.7071 0.7071
vn 1.0000 -0.0000 -0.0000
vn 0.6269 -0.5509 -0.5509
vn -0.0000 -0.9338 -0.3578
vn -0.6269 -0.5509 -0.5509
vn -0.0000 -0.3578 -0.9338
vn -0.0000 -0.7071 -0.7071
vn -1.0000 -0.0000 -0.0000
vn -0.0000 1.0000 -0.0000
vn -0.0000 0.9905 -0.1372
vn -0.0000 0.9923 0.1236
vt 0.176282 0.500000
vt 0.328408 0.500000
vt 0.328408 0.750000
vt 0.176281 0.750000
vt 0.571256 0.500000
vt 0.593224 0.500000
vt 0.593224 0.750000
vt 0.571256 0.750000
vt 0.512840 0.750000
vt 0.342276 0.750000
vt 0.387188 0.732082
vt 0.467929 0.732082
vt 0.387188 0.517918
vt 0.342276 0.500000
vt 0.512840 0.500000
vt 0.467929 0.517918
vt 0.375000 0.301282
vt 0.591008 0.250000
vt 0.625000 0.308279
vt 0.625000 0.439458
vt 0.593224 0.500000
vt 0.571256 0.500000
vt 0.375000 0.453408
vt 0.125000 0.500000
vt 0.164051 0.500000
vt 0.156452 0.515802
vt 0.132599 0.515802
vt 0.156452 0.734198
vt 0.164051 0.750000
vt 0.125000 0.750000
vt 0.132599 0.734198
vt 0.375000 0.796592
vt 0.625000 0.810542
vt 0.625000 0.941720
vt 0.591008 1.000000
vt 0.375000 0.948719
vt 0.591008 0.000000
vt 0.625000 0.000000
vt 0.625000 0.250000
vt 0.685543 0.500000
vt 0.685543 0.750000
vt 0.816721 0.500000
vt 0.816721 0.750000
s 0
f 13/1/1 7/2/1 1/3/1 11/4/1
f 5/5/2 18/6/2 17/7/2 4/8/2
f 4/9/3 1/10/3 2/11/3 3/12/3
f 1/3/4 7/2/4 8/13/4 2/11/4
f 7/14/5 5/15/5 6/16/5 8/13/5
f 5/5/6 4/8/6 3/12/6 6/16/6
f 2/11/7 8/13/7 6/16/7 3/12/7
f 13/17/8 16/18/8 21/18/8 22/19/8 25/20/8 26/21/8 18/21/8 5/22/8 7/23/8
f 16/24/9 13/25/9 14/26/9 15/27/9
f 13/1/10 11/4/10 12/28/10 14/26/10
f 11/29/11 9/30/11 10/31/11 12/28/11
f 9/30/12 16/24/12 15/27/12 10/31/12
f 14/26/13 12/28/13 10/31/13 15/27/13
f 1/32/14 4/8/14 17/7/14 23/7/14 24/33/14 19/34/14 20/35/14 9/35/14 11/36/14
f 9/37/15 20/37/15 21/18/15 16/18/15
f 19/38/16 22/39/16 21/18/16 20/37/16
f 26/6/15 23/7/15 17/7/15 18/6/15
f 25/40/17 24/41/17 23/7/17 26/6/17
f 25/40/15 22/42/15 19/43/15 24/41/15
