# Blender 4.0.1
# www.blender.org
o Cube.001
v 0.793592 0.451380 -1.387419
v 0.793592 0.040972 -0.977010
v 1.270021 0.040972 -0.977010
v 1.270021 0.451380 -1.387419
v 0.793592 0.817520 -1.192311
v 0.793592 0.622412 -1.387419
v 1.270021 0.622412 -1.387419
v 1.270021 0.817520 -1.192311
v 0.793592 0.040972 0.874156
v 0.793592 0.570950 1.404135
v 1.270021 0.570950 1.404135
v 1.270021 0.040972 0.874156
v 0.793592 0.675119 1.404135
v 0.793592 0.817520 1.261733
v 1.270021 0.817520 1.261733
v 1.270021 0.675119 1.404135
v -1.270021 0.442169 -1.387419
v -1.270021 0.031760 -0.977010
v -0.793592 0.031760 -0.977010
v -0.793592 0.442169 -1.387419
v -1.270021 0.808309 -1.192311
v -1.270021 0.613201 -1.387419
v -0.793592 0.613201 -1.387419
v -0.793592 0.808309 -1.192311
v -1.270021 0.031760 0.874156
v -1.270021 0.561738 1.404135
v -0.793592 0.561738 1.404135
v -0.793592 0.031760 0.874156
v -1.270021 0.665908 1.404135
v -1.270021 0.808309 1.261733
v -0.793592 0.808309 1.261733
v -0.793592 0.665908 1.404135
vn -0.0000 -0.0000 -1.0000
vn -0.0000 -0.0000 1.0000
vn -0.0000 -0.7071 -0.7071
vn 1.0000 -0.0000 -0.0000
vn -0.0000 0.7071 -0.7071
vn -1.0000 -0.0000 -0.0000
vn -0.0000 -0.7071 0.7071
vn -0.0000 -1.0000 -0.0000
vn -0.0000 0.7071 0.7071
vn -0.0000 1.0000 -0.0000
vt 0.507126 0.000000
vt 0.562187 0.000000
vt 0.562187 0.250000
vt 0.507126 0.250000
vt 0.545620 0.500000
vt 0.579156 0.500000
vt 0.579156 0.750000
vt 0.545620 0.750000
vt 0.161754 0.500000
vt 0.161754 0.750000
vt 0.125000 0.750000
vt 0.125000 0.500000
vt 0.375000 0.286754
vt 0.625000 0.267473
vt 0.625000 0.487247
vt 0.375000 0.452537
vt 0.625000 0.000000
vt 0.625000 0.250000
vt 0.375000 0.797463
vt 0.625000 0.762753
vt 0.625000 0.982527
vt 0.562187 1.000000
vt 0.507126 1.000000
vt 0.375000 0.963246
vt 0.327537 0.750000
vt 0.327537 0.500000
vt 0.637753 0.500000
vt 0.637753 0.750000
vt 0.857527 0.500000
vt 0.857527 0.750000
s 0
f 1/1/1 6/2/1 7/3/1 4/4/1
f 11/5/2 16/6/2 13/7/2 10/8/2
f 3/9/3 2/10/3 1/11/3 4/12/3
f 3/13/4 4/4/4 7/3/4 8/14/4 15/15/4 16/6/4 11/5/4 12/16/4
f 5/17/5 8/18/5 7/3/5 6/2/5
f 9/19/6 10/8/6 13/7/6 14/20/6 5/21/6 6/22/6 1/23/6 2/24/6
f 9/25/7 12/26/7 11/5/7 10/8/7
f 3/9/8 12/26/8 9/25/8 2/10/8
f 15/27/9 14/28/9 13/7/9 16/6/9
f 15/27/10 8/29/10 5/30/10 14/28/10
f 17/1/1 22/2/1 23/3/1 20/4/1
f 27/5/2 32/6/2 29/7/2 26/8/2
f 19/9/3 18/10/3 17/11/3 20/12/3
f 19/13/4 20/4/4 23/3/4 24/14/4 31/15/4 32/6/4 27/5/4 28/16/4
f 21/17/5 24/18/5 23/3/5 22/2/5
f 25/19/6 26/8/6 29/7/6 30/20/6 21/21/6 22/22/6 17/23/6 18/24/6
f 25/25/7 28/26/7 27/5/7 26/8/7
f 19/9/8 28/26/8 25/25/8 18/10/8
f 31/27/9 30/28/9 29/7/9 32/6/9
f 31/27/10 24/29/10 21/30/10 30/28/10
